<svg xmlns="http://www.w3.org/2000/svg" xmlns:xlink="http://www.w3.org/1999/xlink" fill="none" version="1.1" width="260" height="1016" viewBox="0 0 260 1016"><defs><linearGradient x1="0.5" y1="0" x2="0.5" y2="1" id="master_svg0_33_7374"><stop offset="0%" stop-color="#B4E2FF" stop-opacity="0"/><stop offset="100%" stop-color="#71BCFF" stop-opacity="1"/></linearGradient></defs><g><g><path d="M0,0L0,953L0,984.5L0,1000.25L9.3601074,1009.2593L16.25,1016L32.5,1016L65,1016L130,1016L195,1016L227.5,1016L243.75,1016L251.93994,1007.9629L260,1000.25L260,984.5L260,953L260,0L0,0Z" fill="#2C79CD" fill-opacity="0.6000000238418579"/></g><g><g><g><rect x="36.7998046875" y="1009.22265625" width="31.19999885559082" height="3.1111111640930176" rx="0" fill="#70BEFF" fill-opacity="0.20000000298023224"/></g><g><path d="M97.639892578125,1012.33347795L163.159889578125,1012.33347795L156.919891578125,1005.07421875L103.87989237812499,1005.07421875L97.639892578125,1012.33347795Z" fill="#70BEFF" fill-opacity="0.4000000059604645"/></g><g><path d="M78.39990234375,1012.33347795L87.75990204375,1012.33347795L93.99990134375,1005.07421875L84.63990214374999,1005.07421875L78.39990234375,1012.33347795Z" fill="#70BEFF" fill-opacity="0.5"/></g><g transform="matrix(-1,0,0,1,364.7998046875,0)"><path d="M182.39990234375,1012.33347795L191.75990204375,1012.33347795L197.99990134375,1005.07421875L188.63990214375,1005.07421875L182.39990234375,1012.33347795Z" fill="#70BEFF" fill-opacity="0.5"/></g><g><rect x="192.7998046875" y="1009.22265625" width="31.19999885559082" height="3.1111111640930176" rx="0" fill="#70BEFF" fill-opacity="0.20000000298023224"/></g></g></g><g><path d="M0,0L0,1000.25L8.3200684,1008.7407L16.25,1016L243.75,1016L251.67993,1008.2222L260,1000.25L260,0L0,0ZM16.654137,1014.96L9.0435123,1007.993L1.04,999.82538L1.04,1.04L258.95999,1.04L258.95999,999.80615L250.95169,1007.4797L243.32506,1014.96L16.654137,1014.96Z" fill-rule="evenodd" fill="url(#master_svg0_33_7374)" fill-opacity="1"/></g></g></svg>