<svg xmlns="http://www.w3.org/2000/svg" xmlns:xlink="http://www.w3.org/1999/xlink" fill="none" version="1.1" width="43" height="43" viewBox="0 0 43 43"><defs><clipPath id="master_svg0_33_0223"><rect x="0" y="0" width="43" height="43" rx="0"/></clipPath></defs><g clip-path="url(#master_svg0_33_0223)"><g><path d="M21.457468,0.0432367148C12.921364,-0.0073454825,5.1772704,5.0364570875,1.772449,12.8642811875C-1.6323725,20.6921041875,-0.042041399,29.7960451875,5.8149748,36.0059511875C6.2238221,36.4385031875,6.9059081,36.4577181875,7.3384557,36.0488701875C7.7710037,35.6400221875,7.7902179,34.9579351875,7.3813705,34.5253871875C4.0440788,31.0071281875,2.1719904,26.3499241875,2.1457467,21.5007041875C2.1457472,10.8351361875,10.7919,2.1889853875,21.457468,2.1889853875C32.123035,2.1889853875,40.769188,10.8351361875,40.769184,21.5007041875C40.770298,26.3870291875,38.896263,31.0874731875,35.533562,34.6326751875C35.125271,35.0652961875,35.144733,35.7469211875,35.577045,36.1555481875C36.009357,36.5641711875,36.690994,36.5452341875,37.099957,36.1132391875C43.031898,29.9113581875,44.668964,20.7582431875,41.254452,12.8847181875C37.839935,5.0111941875,30.039007,-0.04894525550000001,21.457468,0.0432367148Z" fill="#FFFFFF" fill-opacity="1" style="mix-blend-mode:passthrough"/></g><g><path d="M21.4574332265625,6.48046875C15.6825981265625,6.528188527,10.4465229265625,9.88254715,7.9890744265624996,15.10863015C5.5316268265624995,20.33471175,6.2880533965625,26.50690675,9.9347720265625,30.98489975C10.3141370265625,31.44060475,10.9909925265625,31.50274475,11.446993326562499,31.12373175C11.9029941265625,30.74472075,11.965658626562501,30.06791075,11.5869970265625,29.61161975C5.8313510465625,22.73725275,8.6891408265625,12.23167805,17.1339902265625,9.220210550000001C25.5788382265625,6.20874196,34.4391382265625,12.53559975,34.3319092265625,21.50069475C34.3417182265625,24.30148075,33.4209062265625,27.02618575,31.7140982265625,29.24684175C31.3959732265625,29.71600875,31.4977192265625,30.35169575,31.9463822265625,30.69813575C32.3950502265625,31.04457275,33.0358012265625,30.98220475,33.409237226562496,30.55574775C35.4081762265625,27.96133275,36.4876192265625,24.77585175,36.4776592265625,21.50069475C36.4776612265625,13.20525265,29.7528742265625,6.48046875,21.4574332265625,6.48046875Z" fill="#FFFFFF" fill-opacity="1" style="mix-blend-mode:passthrough"/></g><g><path d="M23.1096661640625,25.3416023375C25.7170781640625,24.2621855375,26.590798164062498,21.0031488375,24.8730151640625,18.7641842375C23.1552321640625,16.5252198575,19.7811107640625,16.5252198575,18.0633287640625,18.7641842375C16.3455462640625,21.0031488375,17.2192644640625,24.2621855375,19.8266744640625,25.3416023375L10.8574527240625,41.3703309375C10.4656319640625,42.0864349375,10.9852943440625,42.9604109375,11.801581464062501,42.9581829375L31.1133001640625,42.9581829375C31.9295861640625,42.960414937500005,32.4492491640625,42.0864389375,32.057430164062495,41.3703309375L23.1096661640625,25.3416023375ZM17.165947464062498,34.6112289375L19.3116941640625,35.7913899375L15.020200764062501,38.5808619375L17.165947464062498,34.6112289375ZM27.8946821640625,38.4306579375L23.1740391640625,35.7055589375L25.512901164062498,34.182078937499995L27.8946821640625,38.4306579375ZM21.1570381640625,34.482482937499995L18.1315345640625,32.7444309375L21.4574421640625,26.8007097375L24.525858164062498,32.2294479375L21.1570381640625,34.482482937499995ZM21.1570381640625,36.9930059375L27.8946821640625,40.8124349375L15.3849782640625,40.8124349375L21.1570381640625,36.9930059375ZM21.4574421640625,19.3549683375C22.6425061640625,19.3549699375,23.6031891640625,20.3156528375,23.6031891640625,21.5007166375C23.6031891640625,22.6857805375,22.6425061640625,23.6464634375,21.4574421640625,23.6464634375C20.2723789640625,23.6464634375,19.311696064062502,22.6857791375,19.311696064062502,21.5007152375C19.311696064062502,20.3156528375,20.2723789640625,19.3549699375,21.4574421640625,19.3549683375Z" fill="#FFFFFF" fill-opacity="1" style="mix-blend-mode:passthrough"/></g></g></svg>